<svg width="32" height="32" viewBox="0 0 32 32" fill="none" xmlns="http://www.w3.org/2000/svg">
<g id="vuesax/bold/broom">
<g id="broom">
<g id="Group">
<path id="Vector" d="M11.7599 6.53322L10.0533 3.70655C9.41328 2.66655 8.14661 2.07988 6.95995 2.42655C5.17328 2.95988 4.47995 4.97322 5.37328 6.45322L7.13328 9.34655C7.33328 9.65322 7.74661 9.75988 8.05328 9.57322L11.5333 7.45322C11.8533 7.25322 11.9599 6.83988 11.7599 6.53322Z" fill="white"/>
<path id="Vector_2" d="M26.32 18.9465L22.5733 13.8798C21.2666 12.1198 19 11.2931 16.8666 11.8665C16.8666 11.8531 16.8533 11.8531 16.8533 11.8398L14.64 8.19979C14.24 7.57312 13.4133 7.37312 12.7866 7.75979L8.15996 10.5731C7.51996 10.9465 7.31996 11.7865 7.70663 12.4265L9.90663 16.0665C9.90663 16.0665 9.90663 16.0798 9.91996 16.0798C8.43996 17.7198 8.11996 20.1065 9.10663 22.0931L11.88 27.7465C12.7333 29.4931 14.7466 30.1598 16.4533 29.2798C16.5866 29.2131 16.6266 29.0531 16.5466 28.9198L14.4666 25.4798C14.1733 24.9998 14.32 24.3865 14.8 24.0798C15.28 23.7998 15.8933 23.9465 16.2 24.4131L18.2933 27.8531C18.3733 27.9731 18.5333 28.0131 18.6533 27.9465L19.9333 27.1731C20.0533 27.0931 20.0933 26.9331 20.0266 26.8131L17.9333 23.3731C17.6533 22.8931 17.8 22.2798 18.2666 21.9731C18.76 21.6931 19.3733 21.8398 19.6666 22.3065L21.76 25.7465C21.84 25.8665 22 25.9065 22.12 25.8398L23.4 25.0665C23.52 24.9865 23.56 24.8265 23.4933 24.7065L21.4 21.2665C21.12 20.7865 21.2666 20.1731 21.7333 19.8665C22.2266 19.5865 22.84 19.7331 23.1333 20.1998L25.24 23.6265C25.32 23.7465 25.48 23.7865 25.6 23.7065C27.1466 22.5998 27.4933 20.5198 26.32 18.9465Z" fill="white"/>
</g>
</g>
</g>
</svg>
