<svg width="32" height="32" viewBox="0 0 32 32" fill="none" xmlns="http://www.w3.org/2000/svg">
<g id="vuesax/bold/setting-3">
<g id="setting-3">
<path id="Vector" d="M21.5866 2.6665H10.4133C5.55996 2.6665 2.66663 5.55984 2.66663 10.4132V21.5732C2.66663 26.4398 5.55996 29.3332 10.4133 29.3332H21.5733C26.4266 29.3332 29.32 26.4398 29.32 21.5865V10.4132C29.3333 5.55984 26.44 2.6665 21.5866 2.6665ZM10.2266 7.33317C10.2266 6.7865 10.68 6.33317 11.2266 6.33317C11.7733 6.33317 12.2266 6.7865 12.2266 7.33317V12.5332C12.2266 13.0798 11.7733 13.5332 11.2266 13.5332C10.68 13.5332 10.2266 13.0798 10.2266 12.5332V7.33317ZM12.5817 21.9571C12.3753 22.0405 12.2266 22.233 12.2266 22.4556V24.6665C12.2266 25.2132 11.7733 25.6665 11.2266 25.6665C10.68 25.6665 10.2266 25.2132 10.2266 24.6665V22.4556C10.2266 22.233 10.0779 22.0405 9.87155 21.957C8.53731 21.4172 7.59996 20.1215 7.59996 18.5998C7.59996 16.5998 9.22663 14.9598 11.2266 14.9598C13.2266 14.9598 14.8666 16.5865 14.8666 18.5998C14.8666 20.1215 13.9179 21.4173 12.5817 21.9571ZM21.7733 24.6665C21.7733 25.2132 21.32 25.6665 20.7733 25.6665C20.2266 25.6665 19.7733 25.2132 19.7733 24.6665V19.4665C19.7733 18.9198 20.2266 18.4665 20.7733 18.4665C21.32 18.4665 21.7733 18.9198 21.7733 19.4665V24.6665ZM20.7733 17.0265C18.7733 17.0265 17.1333 15.3998 17.1333 13.3865C17.1333 11.8648 18.082 10.569 19.4182 10.0293C19.6246 9.94589 19.7733 9.75331 19.7733 9.53071V7.33317C19.7733 6.7865 20.2266 6.33317 20.7733 6.33317C21.32 6.33317 21.7733 6.7865 21.7733 7.33317V9.54405C21.7733 9.76664 21.922 9.9592 22.1284 10.0427C23.4626 10.5825 24.4 11.8782 24.4 13.3998C24.4 15.3998 22.7733 17.0265 20.7733 17.0265Z" fill="white"/>
</g>
</g>
</svg>
