<svg width="32" height="32" viewBox="0 0 32 32" fill="none" xmlns="http://www.w3.org/2000/svg">
<g id="vuesax/bold/user-octagon">
<g id="user-octagon">
<path id="Vector" d="M26.0133 7.79984L18.0933 3.2265C16.8 2.47984 15.2 2.47984 13.8933 3.2265L5.98664 7.79984C4.69331 8.5465 3.89331 9.93317 3.89331 11.4398V20.5598C3.89331 22.0532 4.69331 23.4398 5.98664 24.1998L13.9066 28.7732C15.2 29.5198 16.8 29.5198 18.1066 28.7732L26.0266 24.1998C27.32 23.4532 28.12 22.0665 28.12 20.5598V11.4398C28.1066 9.93317 27.3066 8.55984 26.0133 7.79984ZM16 9.7865C17.72 9.7865 19.1066 11.1732 19.1066 12.8932C19.1066 14.6132 17.72 15.9998 16 15.9998C14.28 15.9998 12.8933 14.6132 12.8933 12.8932C12.8933 11.1865 14.28 9.7865 16 9.7865ZM19.5733 22.2132H12.4266C11.3466 22.2132 10.72 21.0132 11.32 20.1198C12.2266 18.7732 13.9866 17.8665 16 17.8665C18.0133 17.8665 19.7733 18.7732 20.68 20.1198C21.28 20.9998 20.64 22.2132 19.5733 22.2132Z" fill="white"/>
</g>
</g>
</svg>
